<?xml version="1.0" standalone="no"?>
<!DOCTYPE svg PUBLIC "-//W3C//DTD SVG 20010904//EN"
 "http://www.w3.org/TR/2001/REC-SVG-20010904/DTD/svg10.dtd">
<svg version="1.0" xmlns="http://www.w3.org/2000/svg"
 width="2048.000000pt" height="2047.000000pt" viewBox="0 0 2048.000000 2047.000000"
 preserveAspectRatio="xMidYMid meet">

<g transform="translate(0.000000,2047.000000) scale(0.100000,-0.100000)"
fill="#000000" stroke="none">
<path d="M9730 19949 c-2145 -119 -4199 -952 -5820 -2360 -755 -655 -1405
-1426 -1933 -2289 -129 -212 -384 -703 -520 -1000 -683 -1498 -975 -3148 -847
-4780 150 -1894 865 -3728 2039 -5220 375 -477 853 -975 1321 -1376 2090
-1789 4862 -2607 7588 -2238 2701 365 5115 1842 6668 4079 753 1085 1282 2331
1539 3627 180 911 229 1857 145 2773 -167 1792 -822 3489 -1903 4930 -505 673
-1125 1302 -1797 1825 -952 740 -2099 1327 -3235 1656 -718 208 -1440 331
-2199 374 -204 11 -831 11 -1046 -1z m1200 -533 c102 -9 268 -25 370 -36 102
-11 210 -23 240 -26 100 -11 442 -74 675 -125 276 -60 444 -103 659 -170 89
-27 186 -56 216 -64 31 -8 141 -47 245 -86 105 -39 217 -80 250 -91 33 -11
114 -45 180 -75 66 -30 161 -72 210 -93 122 -52 457 -216 612 -301 70 -38 129
-69 132 -69 15 0 486 -289 641 -393 136 -92 349 -243 372 -265 15 -14 63 -50
107 -81 89 -63 138 -103 389 -316 97 -82 230 -202 294 -265 64 -63 145 -139
178 -169 235 -206 829 -906 1050 -1236 29 -44 77 -112 107 -151 29 -40 53 -75
53 -79 0 -4 28 -48 62 -98 185 -275 576 -995 663 -1222 13 -33 52 -127 88
-210 36 -82 78 -188 95 -235 17 -47 60 -166 97 -265 36 -99 77 -218 89 -265
13 -47 44 -152 69 -235 59 -194 96 -341 151 -600 104 -487 144 -773 186 -1345
18 -243 23 -694 11 -949 -18 -379 -59 -813 -96 -1024 -14 -78 -34 -191 -45
-252 -11 -60 -38 -198 -60 -305 -135 -644 -392 -1398 -663 -1945 -33 -66 -75
-155 -93 -198 -18 -42 -61 -127 -94 -188 -34 -60 -73 -133 -87 -162 -15 -29
-43 -79 -63 -112 -21 -33 -64 -105 -95 -160 -32 -55 -91 -149 -130 -210 -40
-60 -81 -124 -91 -142 -30 -49 -191 -278 -269 -383 -39 -52 -84 -113 -100
-135 -16 -22 -51 -65 -77 -95 -27 -30 -65 -78 -86 -107 -159 -221 -736 -820
-1047 -1088 -77 -66 -164 -143 -195 -171 -30 -27 -67 -57 -81 -66 -14 -9 -69
-52 -121 -95 -150 -122 -501 -376 -628 -453 -31 -19 -97 -61 -146 -93 -120
-78 -393 -240 -476 -282 -37 -19 -107 -56 -155 -83 -96 -53 -524 -262 -537
-262 -4 0 -76 -30 -159 -66 -345 -151 -935 -350 -1332 -449 -173 -43 -613
-133 -805 -164 -174 -29 -268 -40 -661 -76 -431 -39 -980 -43 -1412 -10 -515
39 -747 70 -1137 151 -118 25 -259 54 -313 64 -108 22 -352 88 -552 150 -71
22 -136 40 -143 40 -7 0 -100 32 -205 71 -106 39 -235 85 -287 103 -415 144
-1197 536 -1619 813 -58 37 -124 79 -147 93 -110 64 -456 314 -628 453 -48 39
-98 78 -110 86 -81 57 -458 393 -644 575 -259 254 -681 727 -837 940 -16 22
-70 95 -120 161 -194 259 -502 736 -618 955 -21 41 -70 130 -108 198 -38 67
-69 125 -69 128 0 2 -43 92 -95 198 -52 107 -95 197 -95 200 0 4 -32 79 -71
166 -94 214 -257 654 -319 865 -111 374 -132 447 -145 510 -8 39 -35 160 -59
270 -119 528 -182 1037 -207 1667 -26 661 45 1499 181 2123 21 99 49 225 61
280 61 282 204 752 326 1070 29 77 53 143 53 148 0 5 37 93 81 195 45 103 90
208 100 234 26 67 268 548 323 643 25 44 46 86 46 93 0 35 278 475 496 787
421 602 936 1170 1494 1649 207 177 343 289 423 345 34 24 83 61 108 82 152
126 759 520 986 640 38 19 118 62 178 95 145 80 124 69 340 172 226 108 534
242 660 287 50 18 178 64 285 103 181 65 631 202 780 237 641 149 993 204
1580 250 291 22 302 23 745 19 263 -1 477 -8 595 -18z"/>
<path d="M10745 18191 c-44 -5 -93 -13 -108 -19 -16 -7 -41 -12 -57 -12 -32 0
-128 -23 -157 -38 -10 -5 -35 -12 -55 -15 -32 -5 -78 -23 -188 -75 -14 -7 -45
-23 -69 -37 -24 -14 -50 -25 -58 -25 -7 0 -41 -20 -76 -44 -34 -23 -78 -51
-97 -61 -19 -10 -37 -21 -40 -24 -3 -3 -23 -18 -46 -34 -22 -15 -58 -43 -80
-63 -21 -20 -68 -61 -104 -91 -36 -31 -80 -74 -98 -97 -18 -22 -45 -53 -60
-67 -15 -15 -38 -43 -52 -63 -14 -21 -40 -55 -57 -78 -18 -22 -33 -44 -33 -50
0 -6 -11 -23 -25 -40 -14 -16 -25 -35 -25 -42 0 -7 -9 -21 -20 -31 -10 -9 -26
-39 -35 -65 -9 -27 -23 -54 -31 -61 -8 -6 -21 -37 -30 -68 -9 -31 -26 -74 -39
-96 -12 -22 -26 -56 -30 -75 -3 -19 -24 -107 -45 -195 -33 -138 -39 -182 -45
-325 -8 -187 -8 -166 1 -285 4 -49 11 -99 17 -110 5 -10 13 -46 18 -80 9 -75
27 -147 40 -159 5 -6 9 -21 9 -35 0 -15 7 -39 15 -55 8 -15 15 -36 15 -45 0
-10 7 -26 15 -37 8 -10 15 -25 15 -33 0 -12 60 -146 81 -181 5 -8 12 -22 16
-30 3 -8 16 -28 27 -45 12 -16 30 -48 41 -70 11 -22 26 -44 33 -48 6 -4 12
-13 13 -20 0 -7 23 -40 52 -73 113 -134 181 -209 195 -218 9 -5 38 -31 66 -58
27 -26 53 -48 57 -48 4 0 21 -12 37 -27 16 -16 40 -36 53 -46 54 -39 146 -117
169 -144 59 -65 208 -197 276 -243 12 -8 48 -34 81 -56 79 -56 229 -133 355
-183 359 -143 821 -176 1183 -85 119 30 328 106 423 155 110 56 107 54 220
129 138 92 126 87 166 67 20 -9 56 -35 80 -57 26 -24 53 -40 68 -40 22 0 86
41 192 122 81 62 396 392 396 415 0 6 14 24 30 41 17 18 30 37 30 43 0 7 10
22 23 34 12 12 31 37 42 55 91 154 95 164 71 222 -20 47 -35 58 -94 65 -49 5
-51 5 -94 -38 -23 -25 -52 -60 -63 -79 -38 -65 -55 -91 -75 -112 -11 -12 -20
-27 -20 -34 0 -6 -11 -19 -25 -28 -14 -9 -25 -23 -25 -31 0 -8 -13 -27 -30
-42 -16 -14 -30 -30 -30 -35 0 -21 -175 -197 -270 -271 l-65 -51 55 65 c312
362 465 734 510 1239 12 133 -14 356 -67 570 -66 270 -206 549 -386 769 -75
92 -215 231 -284 282 -55 41 -189 172 -283 277 -30 34 -60 62 -65 62 -6 0 -22
12 -37 28 -14 15 -40 38 -58 52 -18 14 -48 37 -65 53 -18 15 -37 27 -42 27 -6
0 -27 13 -48 30 -20 16 -46 32 -58 36 -12 4 -35 17 -50 30 -16 13 -37 24 -46
24 -10 0 -36 12 -57 26 -21 15 -66 35 -99 46 -33 11 -73 28 -90 38 -16 10 -58
23 -93 30 -35 6 -109 25 -165 42 -84 25 -129 31 -257 38 -85 5 -189 11 -230
13 -41 3 -111 2 -155 -2z m-51 -550 c3 -5 -11 -44 -32 -87 -21 -44 -44 -95
-52 -114 -7 -19 -17 -40 -21 -45 -20 -27 -135 -364 -169 -497 -35 -134 -61
-337 -67 -520 -3 -97 -9 -182 -14 -189 -10 -16 -97 27 -297 146 -123 73 -280
213 -331 294 -45 72 -65 167 -51 253 12 82 13 83 93 196 145 206 405 416 602
488 38 13 76 24 86 24 10 0 33 6 51 14 98 41 190 58 202 37z m745 -17 c104
-31 264 -108 363 -173 307 -203 538 -537 621 -901 44 -192 45 -260 4 -297 -21
-19 -160 -103 -171 -103 -2 0 -33 -13 -68 -28 -109 -50 -191 -76 -288 -92
-195 -34 -249 -41 -355 -51 -130 -12 -340 -2 -555 27 -156 20 -155 18 -164
200 -11 223 26 505 93 715 100 315 221 560 339 687 47 51 63 52 181 16z
m-1873 -1525 c7 -12 100 -81 174 -130 168 -111 412 -239 540 -283 128 -45 142
-56 161 -117 9 -30 25 -88 34 -129 22 -92 90 -309 117 -370 49 -112 85 -180
130 -247 58 -87 61 -105 16 -97 -151 28 -297 74 -411 129 -133 64 -216 116
-318 201 -245 204 -408 464 -488 779 -32 127 -55 285 -46 315 6 20 8 19 46
-10 21 -18 41 -36 45 -41z m2794 -441 c0 -23 -116 -252 -150 -296 -12 -15 -35
-45 -51 -67 -123 -162 -333 -335 -509 -419 -92 -44 -129 -45 -243 -7 -91 31
-204 106 -266 177 -61 69 -197 400 -189 458 4 25 24 26 205 8 264 -26 510 -11
818 49 89 18 313 87 355 110 24 13 30 11 30 -13z"/>
<path d="M8392 15244 c-60 -42 -59 -147 4 -291 8 -17 14 -38 14 -46 0 -8 7
-20 15 -27 8 -7 15 -23 15 -36 0 -12 4 -25 9 -28 5 -3 23 -35 40 -70 17 -36
36 -68 41 -71 6 -3 10 -12 10 -20 0 -18 61 -109 184 -274 57 -76 170 -189 201
-201 29 -11 105 -13 130 -4 22 9 45 57 45 94 0 19 -13 50 -32 77 -25 37 -27
45 -12 38 10 -4 46 -10 80 -13 58 -4 61 -3 87 28 47 56 37 95 -58 221 -79 106
-153 267 -175 384 -13 69 -46 133 -79 149 -52 27 -98 21 -138 -19 -33 -33 -35
-37 -30 -92 7 -76 20 -143 35 -170 7 -12 12 -31 12 -42 0 -10 6 -32 14 -48 8
-15 24 -50 37 -78 12 -27 35 -72 51 -98 15 -26 28 -54 28 -62 0 -8 8 -18 17
-24 10 -5 14 -13 10 -17 -14 -14 -110 106 -167 211 -6 11 -22 38 -35 60 -13
22 -36 65 -51 95 -14 30 -33 67 -40 82 -8 14 -14 32 -14 39 0 7 -6 20 -13 28
-7 9 -21 43 -32 76 -23 75 -63 140 -93 154 -33 16 -84 13 -110 -5z"/>
<path d="M10610 13800 c-226 -22 -584 -102 -737 -166 -357 -147 -675 -387
-926 -698 -224 -280 -368 -572 -444 -902 -26 -112 -27 -134 -28 -364 0 -221 2
-255 23 -348 57 -256 161 -475 302 -641 58 -66 218 -206 263 -227 l34 -16 7
-92 c30 -442 28 -725 -10 -1016 -56 -434 -255 -866 -577 -1250 -58 -69 -212
-231 -343 -360 -131 -129 -346 -341 -477 -470 -385 -379 -564 -586 -722 -835
-71 -113 -202 -379 -250 -509 -48 -130 -99 -332 -121 -481 -23 -157 -24 -465
-1 -617 63 -412 233 -809 478 -1113 87 -109 264 -283 385 -380 54 -44 160
-138 234 -210 289 -279 472 -396 783 -499 385 -129 679 -147 1116 -71 363 63
866 247 1232 450 145 80 364 227 494 331 139 111 438 410 574 574 379 456 843
1163 1067 1625 152 315 312 756 504 1390 206 682 291 1064 429 1920 97 601
121 838 121 1185 0 252 -22 674 -45 853 -13 103 -84 402 -144 608 -103 357
-357 754 -711 1110 -91 91 -201 194 -244 229 -44 34 -132 115 -196 179 -203
205 -344 311 -650 491 -206 121 -370 189 -594 246 -242 62 -610 94 -826 74z
m358 -390 c169 -18 419 -81 592 -148 162 -64 499 -266 640 -382 258 -215 545
-562 667 -805 111 -221 234 -705 278 -1090 63 -561 45 -899 -91 -1735 -157
-964 -271 -1428 -587 -2380 -202 -610 -336 -891 -690 -1450 -172 -273 -450
-658 -628 -870 -136 -164 -387 -415 -519 -520 -500 -399 -1253 -699 -1850
-736 -131 -8 -281 8 -437 46 -316 77 -499 174 -734 390 -293 268 -465 559
-565 953 -144 566 2 1167 415 1712 132 174 302 352 763 802 499 485 584 576
751 805 235 323 405 686 480 1028 64 286 82 513 74 939 l-6 333 22 -7 c12 -4
75 -9 141 -12 130 -6 187 3 287 43 l61 25 67 -35 c117 -61 307 -106 540 -126
116 -11 200 -4 319 26 l64 16 76 -35 c113 -51 201 -68 361 -68 154 0 237 10
365 47 199 56 342 148 396 254 23 46 26 125 6 173 -18 44 -77 94 -127 107 -73
20 -115 5 -237 -85 -43 -31 -127 -62 -220 -82 -108 -22 -311 -15 -373 13 -58
27 -114 76 -144 128 -53 91 -70 311 -40 510 27 179 14 245 -57 299 -93 70
-221 49 -284 -46 -74 -113 -98 -548 -42 -766 l25 -94 -86 6 c-115 7 -283 43
-346 72 -109 52 -193 153 -235 285 -21 64 -22 84 -17 198 5 106 12 149 43 257
20 72 37 153 38 180 0 66 -32 127 -86 162 -35 24 -52 28 -108 28 -121 0 -172
-57 -229 -260 -49 -172 -64 -286 -58 -449 4 -132 15 -192 54 -292 15 -40 -360
11 -460 62 -75 39 -184 168 -245 289 -40 80 -86 222 -103 315 -8 44 -14 140
-13 230 1 240 44 420 154 641 95 194 205 349 365 518 192 202 493 391 765 479
298 96 554 129 808 102z"/>
</g>
</svg>
